<?xml version="1.0" encoding="utf-8"?>
<!-- Generator: Adobe Illustrator 25.4.8, SVG Export Plug-In . SVG Version: 6.00 Build 0)  -->
<svg version="1.1" id="Layer_1" xmlns="http://www.w3.org/2000/svg" xmlns:xlink="http://www.w3.org/1999/xlink" x="0px" y="0px"
	 viewBox="0 0 800 800" style="enable-background:new 0 0 800 800;" xml:space="preserve">
<style type="text/css">
	.st0{fill:#E6FBF7;}
	.st1{fill:#D3EFE9;}
	.st2{fill:#E8EDEC;}
	.st3{fill-rule:evenodd;clip-rule:evenodd;fill:#CBD5E1;}
	.st4{fill-rule:evenodd;clip-rule:evenodd;fill:#0D9488;}
</style>
<g id="Layer_2_00000036227491616136017630000017036599962890753445_">
	<rect class="st0" width="489.6" height="800"/>
	<rect x="33.3" class="st1" width="66.7" height="800"/>
	<rect x="166.5" class="st1" width="66.7" height="800"/>
	<rect x="300" class="st1" width="66.7" height="800"/>
	<rect x="433.3" class="st1" width="66.7" height="800"/>
	<rect x="566.7" class="st2" width="66.7" height="800"/>
	<rect x="700" class="st2" width="66.7" height="800"/>
</g>
<g>
	<g>
		<polygon class="st3" points="219.6,616.3 219.6,250.5 379.8,250.5 379.8,616.3 353.3,616.3 353.3,277 246.1,277 246.1,616.3 		"/>
		<polygon class="st4" points="420.2,563.3 420.2,317.4 580.4,317.4 580.4,563.3 553.9,563.3 553.9,343.9 446.7,343.9 446.7,563.3 
					"/>
		<polygon class="st3" points="647.2,616.3 647.2,250.5 487,250.5 487,616.3 513.5,616.3 513.5,277 620.7,277 620.7,616.3 		"/>
		<polygon class="st4" points="313,183.7 152.8,183.7 152.8,563.3 179.3,563.3 179.3,210.2 286.5,210.2 286.5,563.3 313,563.3 		"/>
		<rect x="286.5" y="536.9" class="st4" width="160.2" height="26.5"/>
		<rect x="353.3" y="589.8" class="st3" width="160.2" height="26.5"/>
	</g>
</g>
</svg>
