<svg id="Layer_1" data-name="Layer 1" xmlns="http://www.w3.org/2000/svg" viewBox="0 0 800 800"><g id="Layer_2" data-name="Layer 2"><rect width="489.6" height="800" fill="#e6fbf7"/><rect x="33.3" width="66.7" height="800" fill="#d3efe9"/><rect x="166.5" width="66.7" height="800" fill="#d3efe9"/><rect x="300" width="66.7" height="800" fill="#d3efe9"/><rect x="433.3" width="66.7" height="800" fill="#d3efe9"/><rect x="566.7" width="66.7" height="800" fill="#e8edec"/><rect x="700" width="66.7" height="800" fill="#e8edec"/></g><polygon points="183.7 219.6 549.5 219.6 549.5 379.8 183.7 379.8 183.7 353.3 523 353.3 523 246.1 183.7 246.1 183.7 219.6" fill="#64748b" fill-rule="evenodd"/><polygon points="236.7 420.2 482.6 420.2 482.6 580.4 236.7 580.4 236.7 553.9 456.1 553.9 456.1 446.7 236.7 446.7 236.7 420.2" fill="#0ea5e9" fill-rule="evenodd"/><polygon points="183.7 647.2 549.5 647.2 549.5 487 183.7 487 183.7 513.5 523 513.5 523 620.7 183.7 620.7 183.7 647.2" fill="#64748b" fill-rule="evenodd"/><polygon points="616.3 313 616.3 152.8 236.7 152.8 236.7 179.3 589.8 179.3 589.8 286.5 236.7 286.5 236.7 313 616.3 313" fill="#0ea5e9" fill-rule="evenodd"/><rect x="236.6" y="286.5" width="26.5" height="160.2" fill="#0ea5e9"/><rect x="183.7" y="353.3" width="26.5" height="160.2" fill="#64748b"/></svg>