<svg xmlns="http://www.w3.org/2000/svg" viewBox="0 0 800 800"><g id="Layer_2" data-name="Layer 2"><rect width="489.59" height="800" fill="#e6fbf7"/><rect x="33.33" width="66.67" height="800" fill="#d3efe9"/><rect x="166.46" width="66.67" height="800" fill="#d3efe9"/><rect x="299.97" width="66.67" height="800" fill="#d3efe9"/><rect x="433.33" width="66.67" height="800" fill="#d3efe9"/><rect x="566.66" width="66.67" height="800" fill="#e8edec"/><rect x="699.99" width="66.67" height="800" fill="#e8edec"/></g><g id="Layer_1" data-name="Layer 1"><path d="M400,256.49A216,216,0,0,1,574.82,599.17c-6-.49-11.65-1.29-17.14-2.1-9.87-1.46-19.73-3.4-29.6-5.66A174.77,174.77,0,1,0,232.62,523a198.14,198.14,0,0,0-38.49,13.75l-.32.16a217.83,217.83,0,0,1-9.71-64.53A215.88,215.88,0,0,1,400,256.49Z" fill="#115e59"/><path d="M400,418.85a53.57,53.57,0,1,1-37.84,15.69A53.16,53.16,0,0,1,400,418.85ZM418.6,454a26,26,0,0,0-18.6-7.77,26.52,26.52,0,0,0-26.2,26.2,26.22,26.22,0,0,0,26.2,26.2,26,26,0,0,0,26.2-26.2A25.87,25.87,0,0,0,418.6,454Z" fill="#115e59"/><path d="M400,124.53c-14.07,2.58-22.64,14.23-17.14,49.64,2.91,19.57,5.66,39.14,8.57,58.54-4.53,1.14-7.93,3.56-8.57,9.38,5.17,19.57,5.5,40.44,1.13,62.1-3.39,16.18,7.44,21.35,7.44,33,0,14.87-8.57,31.53-8.57,46.41,0,6.3,5.34,12.45,8.57,14.55-3.23,1.62-7,4.86-7,8.9,0,3.39,2.59,5.33,5.34,7.27-4.53,3.89-1.61,6.48-3.23,10.35h26.84c-1.61-3.87,1.29-6.46-3.23-10.35,2.75-1.94,5.5-3.88,5.5-7.27,0-4-3.88-7.28-7.12-8.9,3.24-2.1,8.57-8.25,8.57-14.55,0-14.88-8.57-31.54-8.57-46.41,0-11.65,10.83-16.82,7.6-33a136.06,136.06,0,0,1,1-62.1c-.64-5.82-4-8.24-8.57-9.38,2.91-19.4,5.66-39,8.57-58.54,5.5-35.41-3.07-47.06-17.14-49.64Z" fill="#115e59" fill-rule="evenodd"/><path d="M154,226.41c-8.09,11.64-5.83,26,23.12,47.22,15.68,11.8,31.54,23.61,47.39,35.42-2.43,3.88-3.08,8.08.48,12.61,17.47,10.19,32.5,24.74,44.63,43.18,9.22,13.75,20.38,9.7,28.63,18,10.67,10.67,16.33,28.3,26.84,39,4.53,4.36,12.61,5,16.34,4.2-1.13,3.39-1.62,8.41,1.29,11.16,2.43,2.59,5.66,2.1,9.06,1.46-.49,5.81,3.23,5.65,5,9.53,3.07-3.07,6.31-6.3,9.38-9.53,3.24-3.08,6.47-6.32,9.54-9.39-3.88-1.77-3.72-5.5-9.54-5,.65-3.39,1.13-6.63-1.46-9.05-2.75-2.92-7.76-2.43-11.15-1.3.8-3.72.16-11.81-4.21-16.33-10.67-10.52-28.3-16.18-39-26.85-8.25-8.25-4.21-19.41-18-28.62-18.44-12.13-33-27.17-43.18-44.64-4.53-3.55-8.74-2.91-12.62-.48-11.8-15.85-23.61-31.7-35.41-47.39-21.19-28.95-35.58-31.21-47.22-23.12Z" fill="#115e59" fill-rule="evenodd"/><path d="M52.14,472.38c2.59,14.07,14.24,22.64,49.65,17.14,19.57-2.91,39.14-5.66,58.54-8.56,1.13,4.52,3.56,7.92,9.38,8.56,19.57-5,40.43-5.49,62.1-1,16.18,3.24,21.35-7.59,33-7.59,14.88,0,31.54,8.56,46.41,8.56,6.31,0,12.46-5.33,14.56-8.56,1.62,3.23,4.85,7.11,8.89,7.11,3.4,0,5.34-2.75,7.28-5.5,3.88,4.53,6.47,1.62,10.35,3.23V459c-3.88,1.62-6.47-1.29-10.35,3.23-1.94-2.75-3.88-5.33-7.28-5.33-4,0-7.27,3.72-8.89,6.95-2.1-3.23-8.25-8.57-14.56-8.57-14.87,0-31.53,8.57-46.41,8.57-11.64,0-16.81-10.83-33-7.44-21.67,4.37-42.53,3.88-62.1-1.13-5.82.64-8.25,4-9.38,8.57-19.4-2.91-39-5.66-58.54-8.57-35.41-5.5-47.06,3.07-49.65,17.14Z" fill="#115e59" fill-rule="evenodd"/><path d="M364.74,529.79v-.16c2.59-2.43,2.11-5.66,1.46-9.06,5.82.65,5.66-3.23,9.54-5-3.07-3.07-6.3-6.31-9.54-9.38-3.07-3.23-6.31-6.47-9.38-9.54-1.78,3.88-5.5,3.72-5,9.54-3.4-.65-6.63-1-9.06,1.46-2.91,2.91-2.42,7.76-1.29,11.16a21.72,21.72,0,0,0-13.26,2.1,285.64,285.64,0,0,1,36.54,8.89Z" fill="#115e59" fill-rule="evenodd"/><path d="M410.35,548.06a11.36,11.36,0,0,0-1.78-1.45c3.24-1.46,7.12-4.69,7.12-8.89,0-3.4-2.75-5.34-5.5-7.29,4.52-3.87,1.62-6.3,3.23-10.34H386.58c1.62,4-1.3,6.47,3.23,10.34-2.42,1.63-4.85,3.4-5.34,6.32,8.9,3.39,17.47,7.11,25.88,11.31Z" fill="#115e59" fill-rule="evenodd"/><path d="M541,594.15a139.58,139.58,0,0,1-10.67-14.23c-9.06-13.75-20.38-9.7-28.63-17.95-10.67-10.67-16.17-28.3-26.85-39-4.36-4.37-12.61-5-16.33-4.2,1.3-3.4,1.62-8.25-1.29-11.16-2.43-2.43-5.66-2.11-9.06-1.46.65-5.82-3.23-5.66-5-9.54-3.07,3.07-6.31,6.31-9.38,9.54-3.24,3.07-6.31,6.31-9.54,9.38,3.88,1.78,3.72,5.66,9.54,5-.65,3.4-1,6.63,1.46,9.06,2.9,2.91,7.76,2.59,11.16,1.29-.81,3.72-.17,11.81,4.2,16.33,10.67,10.68,28.3,16.18,39,26.85a22.64,22.64,0,0,1,5,8.09,431.48,431.48,0,0,0,46.41,12Z" fill="#115e59" fill-rule="evenodd"/><path d="M747.86,472.38c-2.43-14.07-14.24-22.64-49.65-17.14-19.57,2.91-39,5.66-58.54,8.57-1.14-4.53-3.56-7.93-9.22-8.57-19.57,5-40.43,5.5-62.26,1.13-16.17-3.39-21.19,7.44-33,7.44-14.88,0-31.38-8.57-46.41-8.57-6.31,0-12.46,5.34-14.56,8.57-1.46-3.23-4.69-6.95-8.89-6.95-3.4,0-5.34,2.58-7.28,5.33-3.88-4.52-6.31-1.61-10.35-3.23V485.8c4-1.61,6.47,1.3,10.35-3.23,1.94,2.75,3.88,5.5,7.28,5.5,4.2,0,7.43-3.88,8.89-7.11,2.1,3.23,8.25,8.56,14.56,8.56,15,0,31.53-8.56,46.41-8.56,11.8,0,16.82,10.83,33,7.59,21.83-4.52,42.69-4,62.26,1,5.66-.64,8.08-4,9.22-8.56,19.57,2.9,39,5.65,58.54,8.56,35.41,5.5,47.22-3.07,49.65-17.14Z" fill="#115e59" fill-rule="evenodd"/><path d="M646,226.41c-11.65-8.09-26-5.83-47.23,23.12-11.8,15.69-23.61,31.54-35.25,47.39-4-2.43-8.09-3.07-12.78.48-10.19,17.47-24.58,32.51-43.18,44.64-13.74,9.21-9.7,20.37-18,28.62-10.67,10.67-28.3,16.33-39,26.85-4.37,4.52-5,12.61-4.2,16.33-3.4-1.13-8.26-1.62-11.16,1.3-2.43,2.42-2.11,5.66-1.46,9.05-5.82-.49-5.66,3.24-9.54,5,3.23,3.07,6.3,6.31,9.54,9.39,3.07,3.23,6.31,6.46,9.38,9.53,1.78-3.88,5.66-3.72,5-9.53,3.4.64,6.63,1.13,9.06-1.46,2.91-2.75,2.59-7.77,1.29-11.16,3.72.81,12,.16,16.33-4.2,10.68-10.68,16.18-28.31,26.85-39,8.25-8.25,19.57-4.2,28.63-18,12.29-18.44,27.16-33,44.63-43.18,3.72-4.53,3.07-8.73.48-12.61L623,273.63c29-21.18,31-35.58,23-47.22Z" fill="#115e59" fill-rule="evenodd"/><path d="M124,625.85c55.62-96.39,169.64-116.44,279.77-61.78C504,613.72,616.38,636.52,676.05,599.33,629,675.66,534.22,705.09,396.6,638.3,260,572,171.17,587.52,124,625.85Z" fill="#0369a1" fill-rule="evenodd"/></g></svg>