<?xml version="1.0" encoding="UTF-8"?>
<svg id="Layer_1" data-name="Layer 1" xmlns="http://www.w3.org/2000/svg" viewBox="0 0 650 650">
  <defs>
    <style>
      .cls-1 {
        fill: #06b6d4;
      }

      .cls-2 {
        fill: #64748b;
      }

      .cls-3 {
        fill: #f59e0b;
      }

      .cls-4 {
        fill: #f5f5f5;
      }

      .cls-5 {
        fill: #f43f5e;
      }

      .cls-6 {
        fill: #0d9488;
      }
    </style>
  </defs>
  <rect class="cls-4" width="650" height="650"/>
  <g>
    <path class="cls-1" d="M158.89,221.52l51.11,54.36c18.21-42.62,59.42-73.06,108.03-75.73l35.75-65.14-35.66-64.96c-106.31,2.81-196.4,70.69-231.92,165.29l72.68-13.81Z"/>
    <path class="cls-5" d="M372.04,135.01l-35.92,65.44c48.25,4.25,88.62,35.91,105.46,79.32l72.96,13.87,50.81-54.03c-33.89-95.42-122.97-164.69-228.87-169.38l35.56,64.79Z"/>
    <path class="cls-3" d="M520.18,310.99l-73.31-13.93c2.05,8.99,3.13,18.35,3.13,27.96-.02,39.05-17.95,73.89-46,96.8l9.36,73.71,67.03,31.6c60.53-46.59,99.57-119.74,99.62-202.03.01-23.55-3.18-46.35-9.14-68l-50.68,53.89Z"/>
    <path class="cls-6" d="M398.59,506.27l-9.4-74.04c-18.78,11.26-40.76,17.74-64.26,17.72-24.94-.01-48.16-7.33-67.66-19.93l-67.2,31.68-9.34,73.53c40.99,28.18,90.62,44.7,144.12,44.73,51.96.03,100.29-15.5,140.61-42.16l-66.87-31.52Z"/>
    <path class="cls-2" d="M175.3,450.97l67.52-31.83c-26.26-22.93-42.85-56.66-42.83-94.26,0-11.02,1.45-21.71,4.13-31.89l-50.88-54.11-72.86,13.85c-6.74,22.85-10.38,47.04-10.39,72.08-.05,80.74,37.45,152.73,95.99,199.49l9.31-73.32Z"/>
  </g>
</svg>