<svg id="Layer_1" data-name="Layer 1" xmlns="http://www.w3.org/2000/svg" viewBox="0 0 7.9 8.7"><g id="wmms"><path fill="#0d9488" d="M.3,4.3,0,4.4S1.8,5.9,1.8,6s.2.1.1.4L1.7,7s1.6-.3,1.8-.4.3,0,.3.2-.1,1.9-.1,1.9h.5s-.1-1.8-.1-1.9.1-.2.3-.2S6.2,7,6.2,7A3.93,3.93,0,0,0,6,6.4c-.1-.3,0-.3.1-.4S7.9,4.4,7.9,4.4l-.3-.1c-.2-.1-.1-.2-.1-.3s.3-1.1.3-1.1-.8.2-.9.2-.2,0-.2-.1a2.57,2.57,0,0,0-.2-.5l-1,1.1c-.2.2-.4,0-.3-.2s.5-2.3.5-2.3-.5.3-.7.4-.3.1-.3-.1S4,.1,4,0L3.3,1.4c-.1.2-.2.2-.3.1s-.7-.4-.7-.4.5,2.1.5,2.3-.1.3-.3.2l-1-1.1a1.42,1.42,0,0,1-.2.4c0,.1-.1.2-.2.1a8.66,8.66,0,0,1-1-.2A7.6,7.6,0,0,0,.5,3.9.4.4,0,0,1,.3,4.3Z"/></g></svg>