<svg id="Layer_1" data-name="Layer 1" xmlns="http://www.w3.org/2000/svg" viewBox="0 0 11.34 13.03"><path d="M10.81,8.82H9.89l-.58,1.33H9.09L8.51,8.82H7.59L7,10.15H6.8V6.6h0V5l-.11-.36L6.54,5h0L5.69,2.17,4.88,5h0l-.19-.36L4.54,5V6.6h0v3.55H4.36L3.79,8.82H2.87l-.58,1.33H2.07L1.49,8.82H.57L0,10.15V13H5V11.48a.67.67,0,1,1,1.34,0h0V13h5V10.15ZM1.44,12.37H.62V11.24a.41.41,0,0,1,.82,0Zm2.29,0H2.92V11.24a.41.41,0,0,1,.24-.53.42.42,0,0,1,.53.25.45.45,0,0,1,0,.28Zm2-6a.59.59,0,1,1,.58-.6v0a.58.58,0,0,1-.58.58m2.77,6H7.69V11.24A.41.41,0,0,1,8,10.77a.42.42,0,0,1,.47.34.29.29,0,0,1,0,.13Zm2.3,0H10V11.24a.41.41,0,0,1,.82,0Z" fill="#0d9488"/><path d="M5.69,2.24V1.71a.13.13,0,0,0-.12,0l-.38.07c0-.07.06-.1,0-.2l-.12-.1-.38-.33s.13,0,.14-.09V1A.3.3,0,0,0,4.76.74h.13A.38.38,0,0,0,5,.74.09.09,0,0,0,5.1.68V.59a2,2,0,0,1,.19.22s0,.06.09,0,0-.06,0-.1S5.31.4,5.28.25c0,0,.09.07.14.09s.08,0,.11,0V.26A.76.76,0,0,1,5.64,0h0a1.33,1.33,0,0,0,.11.26V.34a.07.07,0,0,0,.11,0A.22.22,0,0,1,6,.25a3.52,3.52,0,0,1-.1.51c0,.17,0,.09,0,.1S6,.86,6,.81A2,2,0,0,1,6.18.59V.68a.09.09,0,0,0,.06.06.38.38,0,0,0,.15,0h.13A.35.35,0,0,1,6.45,1v.08c0,.06.09.06.14.09l-.4.31-.12.1v.2l-.38-.07a.13.13,0,0,0-.12,0v.53Z" fill="#0d9488"/></svg>